<?xml version="1.0" standalone="no"?>
<!DOCTYPE svg PUBLIC "-//W3C//DTD SVG 20010904//EN"
 "http://www.w3.org/TR/2001/REC-SVG-20010904/DTD/svg10.dtd">
<svg version="1.0" xmlns="http://www.w3.org/2000/svg"
 width="512.000000pt" height="512.000000pt" viewBox="0 0 512.000000 512.000000"
 preserveAspectRatio="xMidYMid meet">
<metadata>
Created by potrace 1.14, written by Peter Selinger 2001-2017
</metadata>
<g transform="translate(0.000000,512.000000) scale(0.100000,-0.100000)"
fill="#000000" stroke="none">
<path d="M1762 4948 c-19 -6 -55 -31 -82 -55 -56 -51 -80 -108 -80 -194 l0
-57 -117 -4 c-103 -3 -125 -6 -175 -30 -100 -47 -169 -138 -183 -242 l-7 -46
41 0 41 0 0 -80 0 -80 -40 0 -40 0 0 -640 0 -640 40 0 40 0 0 -83 0 -83 -49
-23 c-112 -50 -191 -170 -191 -288 0 -24 -2 -43 -5 -43 -4 0 -20 7 -37 16 -17
9 -63 18 -102 19 -83 4 -141 -13 -213 -64 l-47 -33 32 -30 33 -29 -21 -29
c-11 -16 -26 -52 -33 -80 -12 -49 -12 -50 -49 -50 l-38 0 0 -160 0 -160 -132
0 c-116 0 -136 -3 -158 -20 l-25 -19 -3 -253 c-2 -139 0 -268 3 -285 9 -52 42
-63 190 -63 l125 0 1 -177 c1 -217 0 -210 42 -300 20 -45 84 -103 143 -130 77
-35 153 -40 232 -15 l62 20 1 -37 c3 -127 70 -234 184 -291 70 -35 197 -35
269 0 62 30 124 92 156 155 24 49 25 57 28 293 l4 242 79 0 79 0 0 -40 0 -40
560 0 560 0 0 40 0 40 80 0 80 0 1 -220 c1 -121 2 -223 3 -227 1 -5 6 -24 10
-43 19 -77 91 -161 174 -201 67 -33 197 -33 264 0 112 54 188 171 188 288 0
41 8 52 24 36 17 -17 93 -31 155 -29 101 5 189 54 248 141 20 30 55 125 52
141 -1 5 -1 33 0 62 l1 52 80 0 80 0 0 -41 0 -41 203 4 c189 3 205 5 251 28
63 30 125 93 157 156 l24 49 0 1680 0 1680 -27 57 c-31 67 -86 124 -149 155
-55 27 -80 31 -201 32 l-98 1 0 53 c0 78 -24 146 -66 189 -46 48 -83 66 -151
73 -80 9 -142 -15 -196 -75 -49 -54 -67 -106 -67 -189 l0 -51 -160 0 -160 0 0
53 c0 163 -114 280 -259 264 -133 -14 -210 -100 -219 -243 l-5 -74 -158 0
-159 0 0 53 c0 82 -23 146 -71 194 -124 126 -343 75 -394 -91 -8 -27 -15 -74
-15 -103 l0 -53 -160 0 -160 0 0 58 c0 107 -50 195 -133 237 -41 21 -142 27
-185 13z"/>
</g>
</svg>
